<svg xmlns="http://www.w3.org/2000/svg" viewBox="0 0 200 50" width="200" height="50">
  <defs>
    <linearGradient id="redGloss" x1="0%" y1="0%" x2="0%" y2="100%">
      <stop offset="0%" stop-color="#ff2d55"/>
      <stop offset="40%" stop-color="#e91e3a"/>
      <stop offset="100%" stop-color="#c4122a"/>
    </linearGradient>
    <linearGradient id="gloss" x1="0%" y1="0%" x2="0%" y2="100%">
      <stop offset="0%" stop-color="#ffffff" stop-opacity="0.5"/>
      <stop offset="45%" stop-color="#ffffff" stop-opacity="0.1"/>
      <stop offset="55%" stop-color="#ffffff" stop-opacity="0"/>
      <stop offset="100%" stop-color="#000000" stop-opacity="0.08"/>
    </linearGradient>
    <linearGradient id="iconGloss" x1="0%" y1="0%" x2="0%" y2="100%">
      <stop offset="0%" stop-color="#ff2d55"/>
      <stop offset="100%" stop-color="#c4122a"/>
    </linearGradient>
    <filter id="badgeShadow">
      <feDropShadow dx="0" dy="1.5" stdDeviation="2" flood-color="#c4122a" flood-opacity="0.4"/>
    </filter>
  </defs>

  <!-- Icon -->
  <g transform="translate(8, 7)">
    <path d="M18 0 L36 18 L18 36 L0 18 Z" fill="url(#iconGloss)" opacity="0.15"/>
    <path d="M7 26 L7 12 L12 12 L18 20 L24 12 L29 12 L29 26" fill="none" stroke="url(#iconGloss)" stroke-width="4.5" stroke-linecap="round" stroke-linejoin="round"/>
    <circle cx="7" cy="10" r="2.8" fill="#ff2d55"/>
    <circle cx="29" cy="10" r="2.8" fill="#e91e3a"/>
    <circle cx="18" cy="4" r="2.2" fill="#ff2d55" opacity="0.85"/>
    <path d="M13 6 Q18 1 23 6" fill="none" stroke="#ff2d55" stroke-width="1.8" stroke-linecap="round" opacity="0.6"/>
    <path d="M10 8 Q18 -1 26 8" fill="none" stroke="#ff2d55" stroke-width="1.3" stroke-linecap="round" opacity="0.35"/>
  </g>

  <!-- "Max" text -->
  <text x="52" y="34" font-family="'Segoe UI','Helvetica Neue',Arial,sans-serif" font-size="30" font-weight="900" fill="#ffffff" letter-spacing="-0.5">Max</text>

  <!-- HUB badge -->
  <g transform="translate(117, 10)" filter="url(#badgeShadow)">
    <rect x="0" y="0" width="76" height="30" rx="6" fill="url(#redGloss)"/>
    <rect x="0" y="0" width="76" height="15" rx="6" fill="url(#gloss)"/>
    <text x="38" y="22" font-family="'Segoe UI','Helvetica Neue',Arial,sans-serif" font-size="20" font-weight="900" fill="#ffffff" text-anchor="middle" letter-spacing="3.5">HUB</text>
  </g>

  <!-- Underline -->
  <line x1="52" y1="39" x2="113" y2="39" stroke="#e91e3a" stroke-width="2" stroke-linecap="round" opacity="0.45"/>
</svg>
